<svg fill="#38BDF8" role="img" viewBox="0 0 24 24" xmlns="http://www.w3.org/2000/svg"><title>Tailwind CSS</title><path d="M12.001,4.8c-3.2,0-5.2,1.6-6,4.8c1.2-1.6,2.6-2.2,4.2-1.8c0.913,0.228,1.565,0.89,2.288,1.624C13.666,10.618,14.98,11.96,17.999,11.96c3.2,0,5.2-1.6,6-4.8c-1.2,1.6-2.6,2.2-4.2,1.8c-0.913-0.228-1.565-0.89-2.288-1.624C16.334,6.142,15.02,4.8,12.001,4.8z M6.001,11.96c-3.2,0-5.2,1.6-6,4.8c1.2-1.6,2.6-2.2,4.2-1.8c0.913,0.228,1.565,0.89,2.288,1.624c1.177,1.194,2.491,2.536,5.51,2.536c3.2,0,5.2-1.6,6-4.8c-1.2,1.6-2.6,2.2-4.2,1.8c-0.913-0.228-1.565-0.89-2.288-1.624C10.334,13.302,9.02,11.96,6.001,11.96z"/></svg>
